<?xml version="1.0" encoding="UTF-8" standalone="no"?>
<svg
   xmlns:dc="http://purl.org/dc/elements/1.1/"
   xmlns:cc="http://creativecommons.org/ns#"
   xmlns:rdf="http://www.w3.org/1999/02/22-rdf-syntax-ns#"
   xmlns:svg="http://www.w3.org/2000/svg"
   xmlns="http://www.w3.org/2000/svg"
   xmlns:sodipodi="http://sodipodi.sourceforge.net/DTD/sodipodi-0.dtd"
   xmlns:inkscape="http://www.inkscape.org/namespaces/inkscape"
   version="1.1"
   id="Layer_1"
   x="0px"
   y="0px"
   viewBox="0 0 500 500"
   style="enable-background:new 0 0 500 500;"
   xml:space="preserve"
   sodipodi:docname="Facebook-01.svg"
   inkscape:version="1.0.1 (1.0.1+r73)"><metadata
   id="metadata12"><rdf:RDF><cc:Work
       rdf:about=""><dc:format>image/svg+xml</dc:format><dc:type
         rdf:resource="http://purl.org/dc/dcmitype/StillImage" /></cc:Work></rdf:RDF></metadata><defs
   id="defs10" /><sodipodi:namedview
   pagecolor="#ffffff"
   bordercolor="#666666"
   borderopacity="1"
   objecttolerance="10"
   gridtolerance="10"
   guidetolerance="10"
   inkscape:pageopacity="0"
   inkscape:pageshadow="2"
   inkscape:window-width="1154"
   inkscape:window-height="480"
   id="namedview8"
   showgrid="false"
   inkscape:zoom="1.1992531"
   inkscape:cx="250"
   inkscape:cy="250"
   inkscape:window-x="615"
   inkscape:window-y="169"
   inkscape:window-maximized="0"
   inkscape:current-layer="XMLID_17_" />
<style
   type="text/css"
   id="style2">
	.st0{fill:#1877F2;}
	.st1{fill:#FFFFFF;}
</style>
<g
   id="XMLID_17_"
   transform="matrix(1.3706237,0,0,1.3706237,-92.825245,-91.213167)">
	<path
   id="XMLID_22_"
   class="st0"
   d="M 432.5,250 C 432.5,149.2 350.8,67.5 250,67.5 149.2,67.5 67.5,149.2 67.5,250 c 0,91.1 66.7,166.6 154,180.3 V 302.8 H 175.2 V 250 h 46.3 v -40.2 c 0,-45.7 27.2,-71 68.9,-71 20,0 40.9,3.6 40.9,3.6 v 44.9 h -23 c -22.7,0 -29.7,14.1 -29.7,28.5 V 250 h 50.6 l -8.1,52.8 H 278.6 V 430.3 C 365.8,416.6 432.5,341.1 432.5,250 Z" />
	<path
   id="XMLID_18_"
   class="st1"
   d="m 321,302.8 8.1,-52.8 h -50.6 v -34.2 c 0,-14.4 7.1,-28.5 29.7,-28.5 h 23 v -44.9 c 0,0 -20.9,-3.6 -40.9,-3.6 -41.7,0 -68.9,25.3 -68.9,71 V 250 h -46.3 v 52.8 h 46.3 v 127.5 c 9.3,1.5 18.8,2.2 28.5,2.2 9.7,0 19.2,-0.8 28.5,-2.2 V 302.8 Z" />
</g>
</svg>
