<?xml version="1.0" encoding="UTF-8" standalone="no"?>
<svg
   xmlns:dc="http://purl.org/dc/elements/1.1/"
   xmlns:cc="http://creativecommons.org/ns#"
   xmlns:rdf="http://www.w3.org/1999/02/22-rdf-syntax-ns#"
   xmlns:svg="http://www.w3.org/2000/svg"
   xmlns="http://www.w3.org/2000/svg"
   xmlns:sodipodi="http://sodipodi.sourceforge.net/DTD/sodipodi-0.dtd"
   xmlns:inkscape="http://www.inkscape.org/namespaces/inkscape"
   version="1.1"
   id="Layer_1"
   x="0px"
   y="0px"
   viewBox="0 0 500 500"
   style="enable-background:new 0 0 500 500;"
   xml:space="preserve"
   sodipodi:docname="GitHub-Icon-01.svg"
   inkscape:version="1.0.1 (1.0.1+r73)"><metadata
   id="metadata1074"><rdf:RDF><cc:Work
       rdf:about=""><dc:format>image/svg+xml</dc:format><dc:type
         rdf:resource="http://purl.org/dc/dcmitype/StillImage" /></cc:Work></rdf:RDF></metadata><defs
   id="defs1072" /><sodipodi:namedview
   pagecolor="#ffffff"
   bordercolor="#666666"
   borderopacity="1"
   objecttolerance="10"
   gridtolerance="10"
   guidetolerance="10"
   inkscape:pageopacity="0"
   inkscape:pageshadow="2"
   inkscape:window-width="1852"
   inkscape:window-height="1023"
   id="namedview1070"
   showgrid="false"
   inkscape:zoom="1.1992531"
   inkscape:cx="238.74299"
   inkscape:cy="250"
   inkscape:window-x="68"
   inkscape:window-y="27"
   inkscape:window-maximized="1"
   inkscape:current-layer="Layer_1" />
<style
   type="text/css"
   id="style1058">
	.st0{fill-rule:evenodd;clip-rule:evenodd;fill:#181616;}
	.st1{fill:#181616;}
</style>
<g
   id="XMLID_24_">
	<path
   id="XMLID_26_"
   class="st0"
   d="m 252.02007,-2.0097387 c -141.44507,0 -256.0885614,114.6434887 -256.0885614,256.0885587 0,113.09994 73.3886674,209.08053 175.1224814,243.03858 12.76934,2.38548 17.54031,-5.61291 17.54031,-12.34838 0,-6.17419 -0.28064,-26.24032 -0.28064,-47.70965 -71.28383,15.43547 -86.29834,-30.16934 -86.29834,-30.16934 -11.646769,-29.60805 -28.485469,-37.46612 -28.485469,-37.46612 -23.293535,-15.85643 1.68387,-15.57579 1.68387,-15.57579 25.679019,1.82419 39.290299,26.38063 39.290299,26.38063 22.87256,39.14998 59.91771,27.78386 74.51125,21.32902 2.24515,-16.55806 8.98064,-27.78385 16.27741,-34.23869 -56.83062,-6.45484 -116.748321,-28.48547 -116.748321,-126.5709 0,-27.92417 9.962897,-50.79674 26.380641,-68.75802 -2.66614,-6.45483 -11.36613,-32.55481 2.5258,-67.77576 0,0 21.46934,-6.875808 70.44189,26.2403 20.48708,-5.6129 42.37739,-8.55967 64.12738,-8.55967 21.74999,0.14032 43.6403,2.94677 64.12739,8.55967 48.83222,-33.116108 70.30157,-26.2403 70.30157,-26.2403 13.89192,35.22095 5.19193,61.32093 2.5258,67.77576 16.41773,17.96128 26.38064,40.83385 26.38064,68.75802 0,98.36608 -59.91771,119.97574 -116.88865,126.29026 9.12097,7.99838 17.39999,23.57418 17.39999,47.429 0,34.23869 -0.28065,61.88223 -0.28065,70.30158 0,6.87579 4.63065,14.73386 17.54031,12.34838 101.73383,-33.95805 174.98216,-129.79832 174.98216,-243.03858 0,-141.44507 -114.64347,-256.0885587 -256.08856,-256.0885587 z"
   style="stroke-width:1.40322" />
	<path
   id="XMLID_30_"
   class="st1"
   d="m 92.894356,365.63521 c -0.56129,1.2629 -2.525805,1.68387 -4.349997,0.84194 -1.824193,-0.84194 -2.946773,-2.52581 -2.245161,-3.78871 0.56129,-1.2629 2.525805,-1.68387 4.349998,-0.84194 1.824193,0.84194 2.946772,2.52581 2.24516,3.78871 z"
   style="stroke-width:1.40322" />
	<path
   id="XMLID_31_"
   class="st1"
   d="m 103.27823,377.28198 c -1.26291,1.12258 -3.648394,0.56129 -5.191944,-1.12258 -1.68387,-1.82419 -1.96451,-4.20967 -0.70161,-5.33225 1.2629,-1.12258 3.508064,-0.5613 5.191944,1.12258 1.68387,1.82419 1.96451,4.20967 0.70161,5.33225 z"
   style="stroke-width:1.40322" />
	<path
   id="XMLID_32_"
   class="st1"
   d="m 113.38144,392.01584 c -1.54354,1.12258 -4.06935,0.14032 -5.75321,-2.24516 -1.54356,-2.24516 -1.54356,-5.05161 0,-6.17419 1.54354,-1.12258 4.06935,-0.14032 5.75321,2.10484 1.68388,2.38548 1.68388,5.19193 0,6.31451 z"
   style="stroke-width:1.40322" />
	<path
   id="XMLID_33_"
   class="st1"
   d="m 127.27338,406.18842 c -1.40323,1.54354 -4.35,1.12257 -6.59517,-0.98226 -2.24515,-2.10484 -2.80644,-5.05161 -1.40322,-6.59516 1.40322,-1.54355 4.49032,-1.12259 6.59516,0.98226 2.24516,2.24516 2.80645,5.19193 1.40323,6.59516 z"
   style="stroke-width:1.40322" />
	<path
   id="XMLID_34_"
   class="st1"
   d="m 146.35723,414.46744 c -0.56129,1.96452 -3.50806,2.94678 -6.45483,2.10484 -2.94678,-0.84194 -4.77097,-3.22742 -4.20968,-5.19193 0.56129,-1.96452 3.50806,-2.94678 6.45483,-2.10484 2.80646,0.84194 4.77097,3.22742 4.20968,5.19193 z"
   style="stroke-width:1.40322" />
	<path
   id="XMLID_35_"
   class="st1"
   d="m 167.26528,416.01099 c 0.14032,2.10483 -2.38548,3.92903 -5.47258,3.92903 -3.08709,0.14032 -5.47257,-1.68387 -5.61289,-3.7887 0,-2.10485 2.38548,-3.92904 5.47257,-3.92904 3.0871,0 5.6129,1.68387 5.6129,3.78871 z"
   style="stroke-width:1.40322" />
	<path
   id="XMLID_36_"
   class="st1"
   d="m 186.77011,412.78357 c 0.42097,2.10484 -1.68388,4.20967 -4.77096,4.77097 -2.94678,0.56128 -5.75323,-0.70162 -6.03387,-2.80645 -0.42097,-2.10484 1.82418,-4.20968 4.77096,-4.77096 2.94677,-0.5613 5.6129,0.7016 6.03387,2.80644 z"
   style="stroke-width:1.40322" />
</g>
</svg>
